PathFileType	4	(X/Y/Z)	/home/nbianco/projects/addbio/data/HamnerRunning2013/Processed/subject19//results/MarkerData/run200.trc
DataRate	CameraRate	NumFrames	NumMarkers	Units	OrigDataRate	OrigDataStartFrame	OrigNumFrames
120.005	120.005	10	42	m	120.005	239	274
Frame#	Time	C7			CLAV			LACR			LASI			LCAL			LFAradius			LFAsuperior			LFAulna			LLEL			LMEL			LMT5			LPSI			LTB1			LTB2			LTB3			LTH1			LTH2			LTH3			LTOE			LUA1			LUA2			LUA3			RACR			RASI			RCAL			RFAradius			RFAsuperior			RFAulna			RLEL			RMEL			RMT5			RPSI			RTB1			RTB2			RTB3			RTH1			RTH2			RTH3			RTOE			RUA1			RUA2			RUA3		
		X1	Y1	Z1	X2	Y2	Z2	X3	Y3	Z3	X4	Y4	Z4	X5	Y5	Z5	X6	Y6	Z6	X7	Y7	Z7	X8	Y8	Z8	X9	Y9	Z9	X10	Y10	Z10	X11	Y11	Z11	X12	Y12	Z12	X13	Y13	Z13	X14	Y14	Z14	X15	Y15	Z15	X16	Y16	Z16	X17	Y17	Z17	X18	Y18	Z18	X19	Y19	Z19	X20	Y20	Z20	X21	Y21	Z21	X22	Y22	Z22	X23	Y23	Z23	X24	Y24	Z24	X25	Y25	Z25	X26	Y26	Z26	X27	Y27	Z27	X28	Y28	Z28	X29	Y29	Z29	X30	Y30	Z30	X31	Y31	Z31	X32	Y32	Z32	X33	Y33	Z33	X34	Y34	Z34	X35	Y35	Z35	X36	Y36	Z36	X37	Y37	Z37	X38	Y38	Z38	X39	Y39	Z39	X40	Y40	Z40	X41	Y41	Z41	X42	Y42	Z42

240	2.15833	1.02106	1.48851	-0.342942	1.13285	1.40142	-0.314358	1.05202	1.44488	-0.518788	1.07992	0.980341	-0.430225	0.917455	0.0900896	-0.334401	1.07627	1.08344	-0.524301	0.921012	1.1762	-0.60014	1.03399	1.03057	-0.537879	0.850449	1.21909	-0.600334	0.828797	1.2254	-0.528969	1.11728	0.0425621	-0.401334	0.909389	1.00682	-0.368268	1.15389	0.36407	-0.371323	1.08429	0.281807	-0.414744	1.07138	0.18884	-0.345168	1.0497	0.812272	-0.491193	1.1431	0.727937	-0.474447	1.09798	0.591595	-0.444887	1.1237	0.0724803	-0.293797	1.00036	1.38058	-0.56856	0.927877	1.35112	-0.534975	0.955167	1.28341	-0.581885	1.07164	1.45188	-0.150553	1.07343	0.975837	-0.190718	0.68339	0.379039	-0.26868	1.08666	0.996989	-0.104623	0.979235	1.13746	-0.0585831	1.0274	0.961336	-0.0992201	0.901799	1.19591	-0.0633573	0.878396	1.19517	-0.129879	0.724102	0.187062	-0.173183	0.904937	1.00262	-0.268425	1.0318	0.38693	-0.245125	0.953919	0.412281	-0.188652	0.860057	0.327741	-0.243837	1.03616	0.805926	-0.147659	1.12766	0.675446	-0.177246	1.08435	0.576652	-0.192951	0.757223	0.181681	-0.276112	1.03834	1.37121	-0.101648	1.02721	1.28266	-0.112836	0.943916	1.29806	-0.0910979
241	2.16667	1.02056	1.48366	-0.34396	1.13245	1.3965	-0.313666	1.05302	1.43838	-0.520014	1.07837	0.977051	-0.429881	0.900796	0.0902281	-0.333715	1.08482	1.07422	-0.522263	0.93056	1.1644	-0.600945	1.04358	1.02065	-0.536863	0.858531	1.20586	-0.603785	0.834421	1.21152	-0.532868	1.10043	0.042656	-0.401299	0.907716	1.00299	-0.367895	1.14489	0.3586	-0.370727	1.07255	0.277885	-0.414243	1.05706	0.18597	-0.344301	1.04464	0.808207	-0.491726	1.13671	0.723236	-0.47568	1.09204	0.587102	-0.444095	1.10695	0.0719305	-0.29358	1.00369	1.37033	-0.569226	0.930668	1.33963	-0.538012	0.961086	1.27246	-0.583042	1.0681	1.44674	-0.150883	1.07192	0.970012	-0.190581	0.696371	0.377293	-0.26985	1.0721	0.982405	-0.10101	0.970659	1.12875	-0.0592536	1.01071	0.949995	-0.0968543	0.896343	1.19062	-0.0671722	0.874108	1.18992	-0.132965	0.739037	0.188538	-0.168997	0.903924	0.997966	-0.269169	1.04555	0.387176	-0.243197	0.967077	0.41191	-0.187201	0.873532	0.326938	-0.242407	1.03773	0.800983	-0.147665	1.1348	0.673769	-0.175661	1.09505	0.574175	-0.190511	0.772068	0.180482	-0.271977	1.03396	1.36604	-0.102561	1.02271	1.27794	-0.113165	0.939241	1.29253	-0.0938088
242	2.175	1.01997	1.47957	-0.344953	1.13195	1.39246	-0.312957	1.05415	1.43254	-0.521176	1.07685	0.974801	-0.429061	0.884369	0.0909078	-0.334015	1.09416	1.06635	-0.519526	0.941273	1.1538	-0.60121	1.0542	1.01207	-0.535527	0.867506	1.19323	-0.607154	0.84113	1.19798	-0.536894	1.08377	0.0422776	-0.401396	0.906025	1.00011	-0.367048	1.13573	0.354154	-0.371723	1.06085	0.275655	-0.415171	1.04306	0.184292	-0.345013	1.03867	0.80506	-0.491852	1.13108	0.720402	-0.476298	1.0866	0.584282	-0.44507	1.09025	0.0714761	-0.294293	1.00734	1.36136	-0.569614	0.934124	1.32889	-0.540322	0.96749	1.26271	-0.584078	1.06465	1.44259	-0.151229	1.07042	0.964762	-0.190817	0.709826	0.374143	-0.27089	1.0568	0.968684	-0.0975865	0.96236	1.12105	-0.0603686	0.993523	0.93972	-0.0946724	0.891235	1.18599	-0.0711904	0.870682	1.18516	-0.1365	0.755143	0.188756	-0.165071	0.903159	0.994606	-0.269615	1.05954	0.388085	-0.241256	0.980389	0.411918	-0.185839	0.887561	0.325842	-0.240998	1.03958	0.797055	-0.147444	1.14194	0.673431	-0.174382	1.10581	0.573143	-0.188127	0.78822	0.178324	-0.267968	1.02951	1.36209	-0.103609	1.01842	1.2741	-0.113545	0.934784	1.28795	-0.0968402
243	2.18333	1.01933	1.47638	-0.345877	1.13138	1.38932	-0.312266	1.0554	1.42766	-0.522213	1.07544	0.973308	-0.427992	0.868125	0.0918603	-0.334854	1.1041	1.06045	-0.516096	0.952719	1.14485	-0.601062	1.06577	1.00534	-0.533744	0.877265	1.18168	-0.61031	0.848892	1.18542	-0.540877	1.06718	0.0416529	-0.40168	0.904444	0.997956	-0.365909	1.1263	0.350852	-0.374075	1.04944	0.274733	-0.416901	1.02924	0.183575	-0.346695	1.03278	0.802796	-0.491664	1.12688	0.718548	-0.476469	1.0816	0.58238	-0.447452	1.07362	0.0710572	-0.295558	1.01114	1.35407	-0.569854	0.93818	1.31931	-0.541787	0.974214	1.2545	-0.584972	1.06144	1.43943	-0.151495	1.06911	0.960594	-0.191253	0.723698	0.36959	-0.271735	1.04094	0.956321	-0.0944399	0.954486	1.11471	-0.0619327	0.975938	0.930977	-0.0927897	0.88641	1.18233	-0.0753173	0.868245	1.1811	-0.140493	0.772439	0.187585	-0.161642	0.902446	0.992358	-0.269191	1.0736	0.389305	-0.239373	0.993771	0.412317	-0.184581	0.902242	0.324449	-0.239663	1.04138	0.794328	-0.147203	1.1489	0.674508	-0.173367	1.1164	0.573593	-0.186029	0.805713	0.175269	-0.264295	1.02519	1.35915	-0.104721	1.01441	1.27113	-0.11392	0.930532	1.2844	-0.100395
244	2.19167	1.01869	1.47419	-0.346669	1.13076	1.38712	-0.311587	1.05677	1.42409	-0.523027	1.07415	0.97235	-0.426989	0.851914	0.0928737	-0.335759	1.11443	1.0571	-0.512068	0.964331	1.13786	-0.600727	1.07815	1.00097	-0.53135	0.887539	1.17175	-0.613096	0.857366	1.17448	-0.544566	1.05054	0.0410547	-0.402121	0.903069	0.99644	-0.364744	1.11639	0.348571	-0.37682	1.03804	0.274389	-0.418641	1.01524	0.183355	-0.348407	1.02796	0.801426	-0.491456	1.12397	0.717	-0.476408	1.07675	0.580806	-0.450555	1.05701	0.0707289	-0.296813	1.01495	1.34865	-0.570102	0.942648	1.31126	-0.542568	0.981066	1.24812	-0.585706	1.05855	1.43724	-0.151652	1.06813	0.957931	-0.191812	0.737894	0.363634	-0.272374	1.02474	0.94583	-0.0916373	0.947005	1.11001	-0.0638567	0.958184	0.924204	-0.091375	0.881737	1.17992	-0.0794579	0.866512	1.17806	-0.14476	0.790979	0.185019	-0.158806	0.901607	0.99107	-0.267941	1.08762	0.39062	-0.237646	1.00714	0.413046	-0.183459	0.917746	0.322737	-0.238439	1.04279	0.792911	-0.147142	1.15552	0.676951	-0.172525	1.12652	0.575504	-0.18431	0.824621	0.171437	-0.261124	1.0212	1.35703	-0.105801	1.01071	1.26905	-0.114355	0.926474	1.28192	-0.104491
245	2.2	1.01808	1.47306	-0.347285	1.13014	1.38592	-0.31089	1.05825	1.42209	-0.523551	1.07296	0.971803	-0.426336	0.835613	0.0938782	-0.336472	1.12493	1.05672	-0.50763	0.975628	1.13299	-0.600423	1.09107	0.999367	-0.52829	0.897945	1.16391	-0.615392	0.866042	1.16568	-0.547783	1.03376	0.0406413	-0.402615	0.901943	0.99565	-0.363821	1.10564	0.346908	-0.378868	1.02599	0.273991	-0.419884	1.00074	0.183212	-0.349473	1.02472	0.800856	-0.491555	1.12149	0.715434	-0.476243	1.07163	0.579363	-0.453707	1.04039	0.0705746	-0.297677	1.01864	1.34518	-0.57043	0.947261	1.30509	-0.543041	0.987861	1.24377	-0.586287	1.05601	1.43598	-0.151717	1.06751	0.956913	-0.192524	0.75234	0.356282	-0.272849	1.00851	0.937662	-0.0892039	0.939715	1.10712	-0.0659802	0.940615	0.919715	-0.0906021	0.877056	1.17899	-0.0835362	0.864882	1.17635	-0.149039	0.810778	0.181156	-0.156533	0.900613	0.990653	-0.266547	1.10149	0.392061	-0.236181	1.02042	0.413999	-0.182532	0.934148	0.320692	-0.237378	1.04369	0.792797	-0.147274	1.16168	0.680614	-0.171773	1.13598	0.578788	-0.182954	0.845004	0.16698	-0.258542	1.01765	1.35567	-0.106765	1.00728	1.26784	-0.115042	0.922605	1.28064	-0.108878
246	2.20833	1.01754	1.47302	-0.347721	1.12953	1.3858	-0.310138	1.05984	1.42178	-0.523788	1.07184	0.971627	-0.426212	0.819208	0.094979	-0.336988	1.13541	1.0595	-0.503021	0.986357	1.13034	-0.600226	1.10425	1.00083	-0.524736	0.908097	1.15842	-0.617166	0.874454	1.15922	-0.550484	1.01688	0.0404307	-0.403063	0.901076	0.995732	-0.36333	1.09368	0.345374	-0.379743	1.01276	0.273306	-0.420532	0.985654	0.182985	-0.349814	1.02287	0.800868	-0.492094	1.1184	0.713775	-0.475989	1.06562	0.578162	-0.456308	1.02375	0.070618	-0.298113	1.02219	1.34368	-0.570784	0.951759	1.3011	-0.543595	0.994455	1.24152	-0.586747	1.05374	1.43566	-0.151705	1.06721	0.957398	-0.193397	0.767019	0.347563	-0.273245	0.992577	0.932125	-0.0871035	0.932336	1.10609	-0.0681172	0.923658	0.917645	-0.0905961	0.872231	1.17961	-0.0875026	0.862809	1.1762	-0.153129	0.83177	0.176153	-0.15475	0.899604	0.991076	-0.265808	1.11514	0.393901	-0.235067	1.03348	0.41507	-0.181898	0.951244	0.318344	-0.236578	1.04428	0.793899	-0.147418	1.16731	0.685315	-0.171074	1.14463	0.583276	-0.181917	0.866859	0.162062	-0.256587	1.01451	1.35518	-0.107564	1.004	1.26753	-0.116119	0.918896	1.28067	-0.113133
247	2.21667	1.01711	1.474	-0.348001	1.12898	1.38678	-0.309296	1.06151	1.42316	-0.52379	1.0709	0.971854	-0.426688	0.802783	0.0964018	-0.337434	1.14566	1.06541	-0.498438	0.996471	1.12991	-0.600046	1.11737	1.00541	-0.521026	0.917719	1.15532	-0.618459	0.882346	1.15509	-0.552701	0.99995	0.0403715	-0.403429	0.900483	0.996772	-0.363327	1.08039	0.343722	-0.379778	0.99824	0.272522	-0.420724	0.970144	0.182791	-0.349812	1.0217	0.801259	-0.49291	1.11397	0.712086	-0.475618	1.05806	0.577419	-0.45778	1.00716	0.0708207	-0.298287	1.02557	1.34411	-0.571049	0.955982	1.29937	-0.544435	1.00077	1.24132	-0.587108	1.05168	1.43634	-0.151617	1.06709	0.959104	-0.194335	0.781994	0.337545	-0.273662	0.977249	0.92934	-0.0852488	0.92464	1.10688	-0.0701115	0.907734	0.917949	-0.0913942	0.867191	1.18179	-0.0913319	0.86008	1.17774	-0.156964	0.853845	0.1702	-0.153399	0.898817	0.992344	-0.266071	1.1285	0.396485	-0.234352	1.04618	0.416185	-0.181659	0.968539	0.315783	-0.236147	1.04497	0.796128	-0.147363	1.1724	0.690881	-0.170453	1.15242	0.588749	-0.181175	0.890076	0.156837	-0.255262	1.01164	1.35574	-0.108192	1.0007	1.26826	-0.117495	0.91526	1.28208	-0.116853
248	2.225	1.01681	1.47594	-0.348148	1.12848	1.38885	-0.30833	1.06325	1.4261	-0.523594	1.07029	0.972571	-0.427756	0.786459	0.0983858	-0.337906	1.15543	1.07413	-0.493956	1.006	1.13167	-0.599718	1.13013	1.01292	-0.517447	0.926702	1.15442	-0.619334	0.889678	1.15323	-0.554406	0.983041	0.0404174	-0.403714	0.900204	0.998763	-0.363745	1.066	0.342135	-0.379661	0.98282	0.272072	-0.420631	0.954443	0.182904	-0.349886	1.02035	0.801985	-0.493654	1.10805	0.710553	-0.475132	1.04852	0.577324	-0.45771	0.990632	0.0711415	-0.2983	1.0288	1.34636	-0.57114	0.959908	1.29984	-0.545532	1.00678	1.24296	-0.587367	1.04971	1.43804	-0.151458	1.06706	0.961766	-0.195185	0.797387	0.326339	-0.274187	0.962786	0.929223	-0.0835528	0.916533	1.10935	-0.071877	0.89318	0.920434	-0.0929315	0.861932	1.18541	-0.0950129	0.856816	1.18094	-0.160576	0.8769	0.163523	-0.15245	0.898485	0.994478	-0.267068	1.14146	0.400011	-0.234024	1.0584	0.417296	-0.181862	0.985483	0.313118	-0.236115	1.046	0.799412	-0.147046	1.17697	0.697179	-0.16997	1.15935	0.594979	-0.180715	0.914449	0.151435	-0.254518	1.00882	1.35751	-0.108679	0.997188	1.27022	-0.118873	0.911594	1.28488	-0.119828
249	2.23333	1.01668	1.47878	-0.348158	1.12806	1.39193	-0.307214	1.06505	1.43042	-0.523185	1.07013	0.973886	-0.429274	0.770357	0.101101	-0.338411	1.16451	1.08523	-0.489539	1.01496	1.13545	-0.599135	1.14224	1.02292	-0.513994	0.935055	1.15544	-0.61984	0.896511	1.15362	-0.555499	0.966161	0.0405476	-0.403915	0.900278	1.00163	-0.364445	1.05104	0.341142	-0.379786	0.967076	0.272413	-0.420362	0.938772	0.183612	-0.350167	1.0182	0.803182	-0.494015	1.10095	0.709475	-0.474565	1.03726	0.578037	-0.456123	0.974152	0.0715758	-0.298083	1.03196	1.3502	-0.571044	0.963614	1.30223	-0.54672	1.01249	1.24622	-0.587495	1.04778	1.44076	-0.15124	1.06708	0.965213	-0.195841	0.813343	0.314094	-0.274865	0.949357	0.931508	-0.0819923	0.908106	1.11338	-0.0734083	0.880185	0.924799	-0.0950486	0.856508	1.19038	-0.0985341	0.853238	1.18572	-0.16401	0.900879	0.156365	-0.151892	0.898728	0.997506	-0.268243	1.15393	0.404397	-0.234007	1.07008	0.418338	-0.182442	1.00181	0.310437	-0.236361	1.04735	0.803653	-0.146575	1.18107	0.704097	-0.169661	1.16547	0.601772	-0.180497	0.939727	0.145955	-0.254228	1.0059	1.36056	-0.109061	0.993362	1.27355	-0.119955	0.907837	1.28901	-0.122081
